<svg width="127" height="34" viewBox="0 0 127 34" fill="none" xmlns="http://www.w3.org/2000/svg">
<g clip-path="url(#clip0_1044_1137)">
<path d="M30.0115 17.6396C30.0115 26.6235 24.302 34.037 15.0058 34.037C5.59971 34.037 0 26.587 0 17.6396C0 8.69224 5.63631 1.24219 14.9692 1.24219C24.302 1.24219 30.0115 8.72876 30.0115 17.6396ZM14.9692 29.5451C21.7401 29.5451 24.485 23.5923 24.485 17.6396C24.485 11.6869 21.7035 5.73413 14.9326 5.73413C8.16167 5.73413 5.45331 11.7234 5.45331 17.6396C5.45331 23.5558 8.27147 29.5451 14.9692 29.5451Z" fill="white"/>
<path d="M40.5874 1.97266L54.8978 25.0167H54.971V1.97266H60.2047V33.2702H54.422L40.1482 10.2627H40.0018V33.2702H34.8047V1.97266H40.5874Z" fill="white"/>
<path d="M71.1508 1.97266V6.72024H66.1367V1.97266H71.1508ZM71.1508 10.6279V33.2702H66.1367V10.6279H71.1508V10.6279Z" fill="white"/>
<path d="M105.699 17.6396C105.699 26.6235 99.9895 34.037 90.6933 34.037C81.2872 34.037 75.6875 26.587 75.6875 17.6396C75.6875 8.69224 81.3604 1.24219 90.6933 1.24219C100.026 1.24219 105.699 8.72876 105.699 17.6396ZM90.6567 29.5451C97.4276 29.5451 100.173 23.5923 100.173 17.6396C100.173 11.6869 97.3544 5.73413 90.5835 5.73413C83.8126 5.73413 81.1042 11.7234 81.1042 17.6396C81.1042 23.5558 83.959 29.5451 90.6567 29.5451Z" fill="white"/>
<path d="M127 9.56821C127 14.9001 123.047 19.1364 117.63 19.1364C112.14 19.1364 108.188 15.0097 108.188 9.56821C108.188 4.19979 112.177 0 117.63 0C123.083 0 127 4.23631 127 9.56821ZM117.63 17.4565C122.095 17.4565 124.95 13.841 124.95 9.56821C124.95 5.29538 122.095 1.67991 117.594 1.67991C113.092 1.67991 110.237 5.29538 110.237 9.56821C110.237 13.9141 113.055 17.4565 117.63 17.4565ZM118.106 4.45542C120.631 4.45542 121.876 5.40494 121.876 7.48657C121.876 9.23953 120.887 10.189 119.094 10.3716L122.059 15.0097H120.082L117.337 10.4812H115.69V15.0097H113.934V4.4189L118.106 4.45542ZM117.777 9.02041C119.643 9.02041 120.119 8.47261 120.119 7.37701C120.119 6.39098 119.387 5.95274 117.923 5.95274H115.69V9.05693L117.777 9.02041Z" fill="white"/>
</g>
<defs>
<clipPath id="clip0_1044_1137">
<rect width="127" height="34" fill="white"/>
</clipPath>
</defs>
</svg>
