<svg width="127" height="34" viewBox="0 0 127 34" fill="none" xmlns="http://www.w3.org/2000/svg">
<path d="M30.0115 17.6391C30.0115 26.623 24.302 34.0365 15.0058 34.0365C5.59971 34.0365 0 26.5865 0 17.6391C0 8.69175 5.63631 1.2417 14.9692 1.2417C24.302 1.2417 30.0115 8.72827 30.0115 17.6391ZM14.9692 29.5446C21.7401 29.5446 24.485 23.5919 24.485 17.6391C24.485 11.6864 21.7035 5.73364 14.9326 5.73364C8.16167 5.73364 5.45331 11.7229 5.45331 17.6391C5.45331 23.5553 8.27147 29.5446 14.9692 29.5446Z" fill="black"/>
<path d="M40.5893 1.97217L54.8997 25.0162H54.9729V1.97217H60.2066V33.2697H54.4239L40.1502 10.2622H40.0038V33.2697H34.8066V1.97217H40.5893Z" fill="black"/>
<path d="M71.1489 1.97217V6.71975H66.1348V1.97217H71.1489ZM71.1489 10.6274V33.2697H66.1348V10.6274H71.1489Z" fill="black"/>
<path d="M105.699 17.6391C105.699 26.623 99.9895 34.0365 90.6933 34.0365C81.2872 34.0365 75.6875 26.5865 75.6875 17.6391C75.6875 8.69175 81.3604 1.2417 90.6933 1.2417C100.026 1.2417 105.699 8.72827 105.699 17.6391ZM90.6567 29.5446C97.4276 29.5446 100.173 23.5919 100.173 17.6391C100.173 11.6864 97.3544 5.73364 90.5835 5.73364C83.8126 5.73364 81.1042 11.7229 81.1042 17.6391C81.1042 23.5553 83.959 29.5446 90.6567 29.5446Z" fill="black"/>
<path d="M127 9.56821C127 14.9001 123.047 19.1364 117.63 19.1364C112.14 19.1364 108.188 15.0097 108.188 9.56821C108.188 4.19979 112.177 0 117.63 0C123.083 0 127 4.23631 127 9.56821ZM117.63 17.4565C122.095 17.4565 124.95 13.841 124.95 9.56821C124.95 5.29538 122.095 1.67991 117.594 1.67991C113.092 1.67991 110.237 5.29538 110.237 9.56821C110.237 13.9141 113.055 17.4565 117.63 17.4565ZM118.106 4.45542C120.631 4.45542 121.876 5.40494 121.876 7.48657C121.876 9.23953 120.887 10.189 119.094 10.3716L122.059 15.0097H120.082L117.337 10.4812H115.69V15.0097H113.934V4.4189L118.106 4.45542ZM117.777 9.02041C119.643 9.02041 120.119 8.47261 120.119 7.37701C120.119 6.39098 119.387 5.95274 117.923 5.95274H115.69V9.05693L117.777 9.02041Z" fill="black"/>
</svg>
