<svg width="127" height="34" fill="none" xmlns="http://www.w3.org/2000/svg"><g clip-path="url(#clip0_1044_1137)" fill="#fff"><path d="M30.012 17.64c0 8.983-5.71 16.397-15.006 16.397C5.6 34.037 0 26.587 0 17.64 0 8.692 5.636 1.242 14.97 1.242c9.332 0 15.042 7.487 15.042 16.398zM14.969 29.545c6.771 0 9.516-5.953 9.516-11.905 0-5.953-2.782-11.906-9.552-11.906-6.771 0-9.48 5.99-9.48 11.906s2.818 11.905 9.516 11.905zM40.587 1.973l14.31 23.044h.074V1.973h5.234V33.27h-5.783L40.148 10.263h-.146V33.27h-5.197V1.973h5.782zm30.563 0V6.72h-5.013V1.973h5.014zm0 8.655V33.27h-5.013V10.628h5.014zm34.549 7.012c0 8.983-5.71 16.397-15.006 16.397-9.406 0-15.005-7.45-15.005-16.397 0-8.948 5.672-16.398 15.005-16.398 9.333 0 15.006 7.487 15.006 16.398zM90.657 29.545c6.77 0 9.516-5.953 9.516-11.905 0-5.953-2.819-11.906-9.59-11.906-6.77 0-9.479 5.99-9.479 11.906s2.855 11.905 9.553 11.905zM127 9.568c0 5.332-3.953 9.568-9.37 9.568-5.49 0-9.442-4.126-9.442-9.568C108.188 4.2 112.177 0 117.63 0S127 4.236 127 9.568zm-9.37 7.888c4.465 0 7.32-3.615 7.32-7.888s-2.855-7.888-7.356-7.888c-4.502 0-7.357 3.615-7.357 7.888 0 4.346 2.818 7.888 7.393 7.888zm.476-13c2.525 0 3.77.949 3.77 3.03 0 1.754-.989 2.703-2.782 2.886l2.965 4.638h-1.977l-2.745-4.529h-1.647v4.529h-1.756V4.419l4.172.036zm-.329 4.564c1.866 0 2.342-.547 2.342-1.643 0-.986-.732-1.424-2.196-1.424h-2.233v3.104l2.087-.037z"/></g><defs><clipPath id="clip0_1044_1137"><path fill="#fff" d="M0 0h127v34H0z"/></clipPath></defs></svg>