<svg width="127" height="34" fill="none" xmlns="http://www.w3.org/2000/svg"><path d="M30.012 17.64c0 8.983-5.71 16.396-15.006 16.396C5.6 34.036 0 26.586 0 17.64S5.636 1.242 14.97 1.242c9.332 0 15.042 7.486 15.042 16.397zM14.969 29.544c6.771 0 9.516-5.953 9.516-11.906S21.703 5.734 14.933 5.734c-6.771 0-9.48 5.989-9.48 11.905 0 5.916 2.818 11.906 9.516 11.906zM40.59 1.972L54.9 25.016h.073V1.972h5.234V33.27h-5.783L40.15 10.262h-.146V33.27h-5.197V1.972h5.782zm30.559 0V6.72h-5.014V1.972h5.014zm0 8.655V33.27h-5.014V10.627h5.014zm34.55 7.013c0 8.983-5.71 16.396-15.006 16.396-9.406 0-15.005-7.45-15.005-16.397S81.36 1.242 90.692 1.242c9.333 0 15.006 7.486 15.006 16.397zM90.657 29.544c6.77 0 9.516-5.953 9.516-11.906s-2.819-11.905-9.59-11.905c-6.77 0-9.479 5.989-9.479 11.905 0 5.916 2.855 11.906 9.553 11.906zM127 9.568c0 5.332-3.953 9.568-9.37 9.568-5.49 0-9.442-4.126-9.442-9.568C108.188 4.2 112.177 0 117.63 0S127 4.236 127 9.568zm-9.37 7.888c4.465 0 7.32-3.615 7.32-7.888s-2.855-7.888-7.356-7.888c-4.502 0-7.357 3.615-7.357 7.888 0 4.346 2.818 7.888 7.393 7.888zm.476-13c2.525 0 3.77.949 3.77 3.03 0 1.754-.989 2.703-2.782 2.886l2.965 4.638h-1.977l-2.745-4.529h-1.647v4.529h-1.756V4.419l4.172.036zm-.329 4.564c1.866 0 2.342-.547 2.342-1.643 0-.986-.732-1.424-2.196-1.424h-2.233v3.104l2.087-.037z" fill="#000"/></svg>